<svg viewBox="0 0 471.7 72.65" xml:space="preserve" xmlns="http://www.w3.org/2000/svg"><path d="M111.729 35.665c0-1.706-.214-3.298-.639-4.773-.429-1.477-1.06-2.754-1.896-3.818a9.36 9.36 0 0 0-3.015-2.534c-1.175-.623-2.51-.933-4.004-.933h-4.001v25.661h3.684c1.49 0 2.841-.337 4.054-1.013 1.21-.676 2.25-1.619 3.121-2.827.871-1.211 1.538-2.644 2-4.292.463-1.658.696-3.482.696-5.471m6.464 0c0 2.663-.383 5.132-1.144 7.404-.765 2.273-1.843 4.236-3.229 5.89a14.477 14.477 0 0 1-5.067 3.862c-1.99.923-4.213 1.382-6.663 1.382h-8.906c-.391 0-.704-.122-.933-.369-.231-.249-.346-.569-.346-.96V20.002c0-.39.115-.71.346-.955.233-.251.542-.378.933-.378h8.854c2.415 0 4.62.41 6.607 1.228 1.994.815 3.692 1.97 5.094 3.462 1.405 1.494 2.498 3.279 3.279 5.359.785 2.072 1.175 4.392 1.175 6.948M148.688 53.834c-.248.246-.565.368-.955.368h-3.666c-.395 0-.702-.122-.928-.37-.229-.247-.348-.567-.348-.958V38.257h-12.304v14.617c0 .39-.123.71-.37.957-.247.25-.568.371-.956.371h-3.667c-.389 0-.697-.122-.93-.368-.227-.25-.345-.57-.345-.96V20.001c0-.391.118-.711.346-.955.232-.252.54-.378.929-.378h3.667c.388 0 .709.126.955.378.248.244.371.564.371.955v13.047h12.304V20.001c0-.391.119-.711.348-.955.226-.252.533-.378.928-.378h3.665c.39 0 .708.126.955.378.247.244.374.564.374.955v32.873c0 .39-.127.71-.374.96" fill="#eb1b2a"/><path d="M173.887 43.821c0-2.06-.703-3.686-2.106-4.873-1.407-1.191-3.231-1.787-5.474-1.787h-5.818v13.911h5.819c1.03 0 2.01-.178 2.935-.537a7.446 7.446 0 0 0 2.428-1.49 6.75 6.75 0 0 0 1.627-2.29c.396-.888.59-1.867.59-2.934m-.86-16.106c0-1.812-.624-3.25-1.87-4.314-1.247-1.066-2.864-1.597-4.855-1.597h-5.814v12.3h5.655c.889 0 1.741-.156 2.562-.479a7.25 7.25 0 0 0 2.185-1.333 6.68 6.68 0 0 0 1.549-2.021 5.67 5.67 0 0 0 .588-2.556m4.897 16.26c0 1.596-.321 3.034-.961 4.314a9.3 9.3 0 0 1-2.639 3.228c-1.117.866-2.422 1.533-3.914 2-1.491.458-3.072.685-4.74.685h-8.155a.876.876 0 0 1-.638-.261.87.87 0 0 1-.27-.64V19.523c0-.248.09-.453.27-.614a.91.91 0 0 1 .638-.242h8.798c1.39 0 2.73.18 4.027.532 1.298.357 2.437.901 3.415 1.626.982.729 1.757 1.653 2.345 2.774.589 1.113.882 2.436.882 3.965 0 .957-.217 1.872-.643 2.744a9.814 9.814 0 0 1-1.601 2.34 10.22 10.22 0 0 1-2.113 1.756c-.766.481-1.505.83-2.215 1.04.99.179 1.944.508 2.848.99a8.977 8.977 0 0 1 2.4 1.838 8.686 8.686 0 0 1 1.649 2.583c.408.976.617 2.016.617 3.12M209.475 53.3a1.491 1.491 0 0 1-.372.642.884.884 0 0 1-.642.261h-2.664a.982.982 0 0 1-.667-.26 1.398 1.398 0 0 1-.4-.643l-5.89-29.782-5.79 29.782a1.36 1.36 0 0 1-.396.642.983.983 0 0 1-.669.261h-2.664a.978.978 0 0 1-.663-.26 1.363 1.363 0 0 1-.403-.643l-6.839-33.78c-.07-.249-.027-.454.13-.613a.854.854 0 0 1 .617-.239h2.238c.569 0 .925.286 1.067.852l5.345 29.836L196.6 19.52c.14-.566.498-.852 1.065-.852h2.664c.536 0 .871.286 1.015.852l5.836 29.836 5.294-29.836c.145-.566.481-.852 1.015-.852h2.132c.245 0 .44.08.588.24.141.158.176.363.105.612l-6.84 33.78" fill="#4f5f68"/><path d="M17.78 54.195H1.334A1.332 1.332 0 0 1 0 52.862V19.981c0-.735.596-1.333 1.333-1.333h32.882c.736 0 1.335.598 1.335 1.333v1.462c0-.369-.15-.554-.391-.554-.242 0-.576.185-.944.554L19.111 36.548c-.737.74-1.33 1.932-1.33 2.666v14.982M38.649 19.981V18.33c0-.738.596-1.93 1.332-2.666L55.088.553c.366-.368.7-.552.942-.552.243 0 .394.184.394.552v18.095H39.98c-.736 0-1.332.598-1.332 1.333" fill="#eb1b2a"/><path d="M72.864 54.195H39.98a1.332 1.332 0 0 1-1.333-1.333v-1.653c0 .369.15.553.39.553h.001c.241 0 .574-.184.942-.553l15.107-15.107c.283-.285.548-.638.765-1.007.345-.585.572-1.209.572-1.66V18.649h16.44c.732 0 1.332.599 1.332 1.333v32.882c0 .737-.6 1.333-1.332 1.333" fill="#6e7c84"/><path d="M39.039 51.763c-.241-.001-.39-.185-.39-.554V19.981c0-.735.596-1.333 1.332-1.333h16.443v14.787c0 .45-.227 1.074-.57 1.659a5.15 5.15 0 0 1-.767 1.007L39.98 51.21c-.367.368-.7.552-.941.553" fill="#861720"/><path d="M39.039 51.763c.24-.001.574-.185.942-.554l15.106-15.107-15.105 15.107c-.369.369-.702.553-.943.553" fill="#3a2b37"/><path d="M18.169 72.65c-.24 0-.389-.184-.389-.552V54.196h16.436c.736 0 1.335-.596 1.335-1.333v1.46c0 .74-.599 1.933-1.335 2.668L19.111 72.1c-.368.367-.701.551-.942.551" fill="#6e7c84"/><path d="M34.216 54.195H17.78V39.214c0-.735.594-1.927 1.331-2.666l15.105-15.105c.368-.37.702-.554.943-.554.242 0 .392.185.392.554V52.86c0 .738-.6 1.333-1.335 1.333" fill="#861720"/><g fill="#4f5f68"><path d="M280.262 54.236V22.543l-9.912 31.693h-3.73l-9.913-31.693v31.693h-3.632v-35.47h5.915l9.646 30.737 9.539-30.737h5.916v35.47h-3.829M306.613 40.37l-4.485.959c-.75.176-1.55.442-2.404.798-.854.355-1.628.78-2.323 1.277a7.507 7.507 0 0 0-1.735 1.702c-.462.638-.694 1.33-.694 2.076 0 1.489.453 2.66 1.362 3.511.907.852 2.02 1.277 3.337 1.277.819 0 1.61-.168 2.376-.505a8.826 8.826 0 0 0 2.083-1.278 9.157 9.157 0 0 0 1.575-1.65c.427-.584.729-1.143.907-1.675V40.37zm.195 13.865.017-3.79c-.107.214-.365.57-.774 1.066-.409.495-.95.992-1.625 1.489-.675.495-1.449.93-2.319 1.301a7.023 7.023 0 0 1-2.797.559c-2.346 0-4.274-.655-5.784-1.965-1.51-1.311-2.265-3.154-2.265-5.527 0-1.134.328-2.18.985-3.135a9.862 9.862 0 0 1 2.506-2.497 17.426 17.426 0 0 1 3.305-1.806c1.19-.496 2.302-.85 3.332-1.063l5.224-1.168v-1.754c0-1.736-.47-3.198-1.41-4.384s-2.368-1.78-4.283-1.78c-.568 0-1.206.107-1.915.32-.71.212-1.384.452-2.023.718a23.26 23.26 0 0 0-1.728.798c-.515.266-.843.452-.984.558l-1.117-2.875c.14-.107.477-.286 1.01-.536a28.99 28.99 0 0 1 1.914-.803 19.29 19.29 0 0 1 2.475-.75 11.862 11.862 0 0 1 2.74-.32c2.696 0 4.85.754 6.46 2.26 1.61 1.509 2.416 3.716 2.416 6.624v18.46h-3.36M334.025 54.236V36.318c0-.708-.115-1.443-.345-2.206a7.494 7.494 0 0 0-.984-2.074 5.086 5.086 0 0 0-1.621-1.515c-.655-.39-1.409-.585-2.259-.585a5.13 5.13 0 0 0-2.365.585c-.762.39-1.435.86-2.02 1.41a9.389 9.389 0 0 0-1.436 1.675c-.371.566-.575 1.027-.61 1.381v19.247h-3.672v-26.72h3.516v3.723c.07-.176.3-.504.69-.984.39-.479.904-.965 1.542-1.462s1.364-.938 2.179-1.324 1.684-.578 2.605-.578c1.417 0 2.658.257 3.721.771 1.064.515 1.94 1.198 2.631 2.048a8.984 8.984 0 0 1 1.568 2.9c.355 1.081.532 2.171.532 3.271v18.354h-3.672M361.525 54.236V36.318c0-.708-.115-1.443-.345-2.206a7.494 7.494 0 0 0-.984-2.074 5.086 5.086 0 0 0-1.621-1.515c-.655-.39-1.409-.585-2.259-.585a5.13 5.13 0 0 0-2.365.585c-.762.39-1.435.86-2.02 1.41a9.389 9.389 0 0 0-1.436 1.675c-.371.566-.575 1.027-.61 1.381v19.247h-3.672v-26.72h3.516v3.723c.07-.176.3-.504.69-.984.39-.479.904-.965 1.542-1.462s1.364-.938 2.179-1.324 1.684-.578 2.605-.578c1.417 0 2.658.257 3.721.771 1.064.515 1.94 1.198 2.631 2.048a8.984 8.984 0 0 1 1.568 2.9c.355 1.081.532 2.171.532 3.271v18.354h-3.672M389.025 54.236V36.318c0-.708-.115-1.443-.345-2.206a7.494 7.494 0 0 0-.984-2.074 5.086 5.086 0 0 0-1.621-1.515c-.655-.39-1.409-.585-2.259-.585-.851 0-1.656.204-2.419.612a9.448 9.448 0 0 0-2.02 1.436c-.583.549-1.053 1.106-1.407 1.674-.355.568-.55 1.01-.585 1.33v19.246h-3.672V16.5h3.672l-.003 14.742c.07-.212.293-.558.665-1.034.372-.478.868-.964 1.488-1.46.621-.496 1.33-.929 2.127-1.301a6.04 6.04 0 0 1 2.58-.557c1.418 0 2.66.258 3.723.772 1.063.515 1.94 1.197 2.633 2.048a9.008 9.008 0 0 1 1.567 2.9c.355 1.08.532 2.17.532 3.27v18.355h-3.672M415.512 36.088a11.794 11.794 0 0 0-1.065-2.967 7.67 7.67 0 0 0-1.89-2.358c-.782-.654-1.722-.982-2.823-.982-1.03 0-1.935.31-2.716.928a7.362 7.362 0 0 0-1.918 2.305c-.498.92-.88 1.9-1.146 2.942s-.399 2.004-.399 2.888h12.305c0-.776-.116-1.695-.348-2.756zM403.438 41.5c0 1.065.133 2.2.4 3.406a12.859 12.859 0 0 0 1.25 3.379 8.229 8.229 0 0 0 2.182 2.608c.885.692 1.95 1.037 3.191 1.037.745 0 1.481-.079 2.209-.238.726-.16 1.4-.347 2.021-.56a13.447 13.447 0 0 0 1.623-.664c.46-.233.833-.435 1.117-.613l1.118 3.088a18.988 18.988 0 0 1-2.952 1.12c-.728.211-1.545.397-2.448.558-.905.158-1.854.24-2.847.24-2.093 0-3.813-.452-5.161-1.356a10.04 10.04 0 0 1-3.219-3.511c-.798-1.436-1.357-3.013-1.677-4.732a27.82 27.82 0 0 1-.478-5.078c0-1.31.213-2.746.639-4.307a16.067 16.067 0 0 1 1.89-4.333 11.76 11.76 0 0 1 3.089-3.324c1.224-.886 2.652-1.33 4.286-1.33 1.81 0 3.336.425 4.579 1.275a9.95 9.95 0 0 1 3.009 3.242 14.702 14.702 0 0 1 1.65 4.302c.337 1.56.506 3.047.506 4.463V41.5h-15.976M426.313 54.236v-26.72h3.672v26.72h-3.672zm4.492-33.926c0 .707-.268 1.316-.8 1.829-.532.512-1.153.769-1.864.769-.71 0-1.322-.257-1.839-.77-.515-.512-.77-1.12-.77-1.828 0-.706.256-1.316.77-1.828.517-.513 1.13-.77 1.84-.77.71 0 1.33.257 1.863.77.532.512.8 1.122.8 1.828M468.025 54.236V36.318c0-.78-.09-1.55-.266-2.312a6.865 6.865 0 0 0-.825-2.047 4.297 4.297 0 0 0-1.517-1.462c-.64-.373-1.402-.559-2.288-.559-.923 0-1.748.169-2.475.506a7.078 7.078 0 0 0-1.863 1.223c-.514.478-.93.984-1.25 1.515-.32.53-.497.992-.532 1.382v19.672h-3.673V36.317c0-.778-.08-1.55-.239-2.312a6.396 6.396 0 0 0-.798-2.046 4.356 4.356 0 0 0-1.49-1.462c-.622-.373-1.41-.559-2.368-.559a4.94 4.94 0 0 0-2.369.585c-.727.39-1.356.86-1.888 1.41a8.185 8.185 0 0 0-1.277 1.674c-.32.567-.515 1.028-.586 1.382v19.247h-3.672v-26.72h3.516v3.723c.106-.142.329-.452.665-.93.337-.48.78-.976 1.33-1.49.549-.515 1.222-.964 2.021-1.35.798-.386 1.694-.578 2.688-.578 1.312 0 2.403.178 3.272.532.87.354 1.589.771 2.155 1.25.569.478.994.958 1.276 1.437.284.478.498.86.64 1.143.105-.178.347-.505.718-.984.372-.478.87-.966 1.49-1.463.621-.497 1.366-.94 2.235-1.33.869-.39 1.836-.585 2.9-.585 1.525 0 2.812.257 3.857.771 1.048.515 1.89 1.198 2.53 2.048a7.949 7.949 0 0 1 1.354 2.9c.266 1.081.4 2.171.4 3.271v18.354h-3.671"/></g></svg>